# xmcd CD database file
#
# Track frame offsets:
#	182
#	16332
#	37267
#	52105
#	68317
#	80907
#	98312
#	118162
#	139607
#	155872
#	176590
#	194690
#
# Disc length: 2780 seconds
#
# Revision: 1
# Processed by: cddbd v1.4PL0 Copyright (c) Steve Scherf et al.
# Submitted via: CDex 1.50
#
DISCID=a70ada0c
DTITLE=Vince Gill - 35 All-Time Favorites - Disc 1
DYEAR=1997
DGENRE=Country
TTITLE0=Cinderella
TTITLE1=With You
TTITLE2=Oh Carolina
TTITLE3=It Doesn't Matter Anymore
TTITLE4=Don't Say You Love Me
TTITLE5=Ain't It Always That Way
TTITLE6=Colder Than Winter
TTITLE7=Losing Your Love
TTITLE8=Baby That's Tough
TTITLE9=Misery Train
TTITLE10=Fool Fool
TTITLE11=Waiting For Your Love
EXTD=YEAR: 1997
EXTT0=
EXTT1=
EXTT2=
EXTT3=
EXTT4=
EXTT5=
EXTT6=
EXTT7=
EXTT8=
EXTT9=
EXTT10=
EXTT11=
PLAYORDER=
